<?xml version="1.0" encoding="utf-8"?>
<!-- Generator: Adobe Illustrator 19.1.0, SVG Export Plug-In . SVG Version: 6.00 Build 0)  -->
<svg version="1.1" id="Layer_1" xmlns="http://www.w3.org/2000/svg" xmlns:xlink="http://www.w3.org/1999/xlink" x="0px" y="0px"
	 viewBox="-210 221 165.5 43.9" style="enable-background:new -210 221 165.5 43.9;" xml:space="preserve">
<style type="text/css">
	.st0{fill:none;stroke:#424242;stroke-width:3.8906;stroke-linecap:round;stroke-miterlimit:10;}
	.st1{fill:#49A7C4;}
	.st2{fill:none;}
	.st3{fill:#424242;}
	.st4{font-family:'PTSerif-Caption';}
	.st5{font-size:36px;}
</style>
<path class="st0" d="M-184.4,228.1c2,0.9,3.9,2.1,5.4,3.6c1.5,1.5,2.8,3.4,3.6,5.4c0.9,2,1.3,4.3,1.3,6.6c0,2.3-0.5,4.6-1.3,6.6
	c-0.9,2-2.1,3.9-3.6,5.4c-1.5,1.5-3.4,2.8-5.4,3.6c-2,0.9-4.3,1.3-6.6,1.3c-2.3,0-4.6-0.5-6.6-1.3c-2-0.9-3.9-2.1-5.4-3.6
	c-1.5-1.5-2.8-3.4-3.6-5.4c-0.9-2-1.3-4.3-1.3-6.6c0-2.3,0.5-4.6,1.3-6.6s2.1-3.9,3.6-5.4c1.5-1.5,3.4-2.8,5.4-3.6"/>
<path class="st1" d="M-189,238.1c0,1.1-0.9,1.9-1.9,1.9h-0.1c-1.1,0-1.9-0.9-1.9-1.9v-15.1c0-1.1,0.9-1.9,1.9-1.9h0.1
	c1.1,0,1.9,0.9,1.9,1.9V238.1z"/>
<rect x="-166.2" y="224.5" class="st2" width="121.8" height="31"/>
<text transform="matrix(1 0 0 1 -166.25 255.0996)" class="st3 st4 st5">Switch</text>
<ellipse class="st1" cx="-109.9" cy="230.5" rx="4.6" ry="4.4"/>
</svg>
